<?xml version="1.0" encoding="UTF-8"?>
<svg width="576" height="360" version="1.1" viewBox="0 0 576 360" xmlns="http://www.w3.org/2000/svg" xmlns:cc="http://creativecommons.org/ns#" xmlns:dc="http://purl.org/dc/elements/1.1/" xmlns:rdf="http://www.w3.org/1999/02/22-rdf-syntax-ns#">
 <metadata>
  <rdf:RDF>
   <cc:Work>
    <dc:format>image/svg+xml</dc:format>
    <dc:type rdf:resource="http://purl.org/dc/dcmitype/StillImage"/>
    <cc:license rdf:resource="http://creativecommons.org/publicdomain/zero/1.0/"/>
    <dc:publisher>
     <cc:Agent rdf:about="http://openclipart.org/">
      <dc:title>Openclipart</dc:title>
     </cc:Agent>
    </dc:publisher>
    <dc:title/>
    <dc:date>2010-08-16T19:25:18</dc:date>
    <dc:description>Vector wire-framed globes.</dc:description>
    <dc:source>https://openclipart.org/detail/80965/globe-5-by-inky2010</dc:source>
    <dc:creator>
     <cc:Agent>
      <dc:title>inky2010</dc:title>
     </cc:Agent>
    </dc:creator>
    <dc:subject>
     <rdf:Bag>
      <rdf:li>3D</rdf:li>
      <rdf:li>Wire-frame</rdf:li>
      <rdf:li>globe</rdf:li>
      <rdf:li>gloss</rdf:li>
      <rdf:li>glossy</rdf:li>
      <rdf:li>glow</rdf:li>
      <rdf:li>icon</rdf:li>
      <rdf:li>inkscape</rdf:li>
      <rdf:li>inky2010</rdf:li>
      <rdf:li>transparent</rdf:li>
      <rdf:li>wire</rdf:li>
     </rdf:Bag>
    </dc:subject>
   </cc:Work>
   <cc:License rdf:about="http://creativecommons.org/publicdomain/zero/1.0/">
    <cc:permits rdf:resource="http://creativecommons.org/ns#Reproduction"/>
    <cc:permits rdf:resource="http://creativecommons.org/ns#Distribution"/>
    <cc:permits rdf:resource="http://creativecommons.org/ns#DerivativeWorks"/>
   </cc:License>
  </rdf:RDF>
 </metadata>
 <rect width="576" height="360" fill="#3f51b5"/>
 <g transform="rotate(15,288,180)" fill="none" stroke="#fff">
  <g stroke-width="2">
   <path d="m281.84 333.57c-4.8474-0.19442-6.0191-69.11-2.6173-153.93 3.4018-84.816 10.089-153.42 14.936-153.22"/>
   <path d="m258.22 330.78c-22.209-4.3862-26.881-75.452-10.435-158.73 16.447-83.275 47.785-147.23 69.994-142.84"/>
   <path d="m232.54 323.34c-36.264-14.03-40.831-89.581-10.203-168.75 30.628-79.166 84.855-131.97 121.12-117.94v1e-6"/>
   <path d="m203.35 308.29c-43.802-28.902-41.413-109.77 5.3367-180.62 46.749-70.851 120.16-104.86 163.96-75.956v2e-6"/>
   <path d="m170.91 279.57c-40.485-47.61-20.883-130.78 43.782-185.77 64.665-54.988 149.91-60.968 190.39-13.358l1e-5 4e-6"/>
   <path d="m142.43 229.33c-21.908-64.646 25.505-139.14 105.9-166.38 80.393-27.244 163.33 3.0744 185.23 67.72v1e-5"/>
   <path d="m135.43 161.4c8.3946-68.855 83.507-116.35 167.77-106.07s145.76 74.419 137.37 143.27"/>
   <path d="m156.22 100.89c33.839-56.369 120.27-66.647 193.05-22.957 72.777 43.689 104.34 124.8 70.505 181.17"/>
   <path d="m188.43 62.914c43.916-37.345 124.09-15.196 179.08 49.468 54.989 64.664 63.967 147.36 20.052 184.7"/>
   <path d="m219.42 42.452c40.826-20.356 104.63 24.726 142.5 100.69 37.876 75.965 35.486 154.05-5.3391 174.41"/>
   <path d="m246.59 31.985c29.356-8.2123 71.691 51.4 94.559 133.15 22.868 81.746 17.611 154.67-11.745 162.88"/>
   <path d="m270.97 27.249c13.187-1.4703 31.502 65.727 40.908 150.09 9.406 84.361 6.3415 153.94-6.8453 155.41"/>
  </g>
  <g transform="matrix(1.537 0 0 1.537 288 180)" stroke-width="1.3013">
   <path d="m15.682 98.764c-10.262 1.6294-21.102 1.6294-31.364 1e-6"/>
   <path d="m50.483 86.323c-27.345 15.992-72.114 16.242-99.995 0.55695-0.3268-0.18384-0.65047-0.3695-0.97099-0.55695"/>
   <path d="m69.65 71.756c-22.73 22.064-72.34 29.384-110.81 16.343-11.746-3.982-21.548-9.604-28.49-16.343"/>
   <path d="m83.237 55.422c-17.556 26.368-69.055 39.581-115.03 29.51-23.685-5.189-42.397-15.922-51.444-29.51"/>
   <path d="m92.612 37.724c-11.951 29.338-63.102 47.564-114.25 40.71-35.232-4.722-62.742-20.501-70.974-40.71"/>
   <path d="m98.16 19.097c-6.05 31.096-54.902 53.49-109.11 50.02-45.879-2.936-82.09-23.706-87.21-50.02"/>
   <path d="m100 0c0 31.678-44.772 57.359-100 57.359s-100-25.681-100-57.359v-2.662e-6"/>
   <path d="m98.16-19.097c6.05 31.095-32.994 59.116-87.206 62.586s-103.06-18.925-109.11-50.02c-0.81236-4.1756-0.81236-8.3901-1e-6 -12.566"/>
   <path d="m92.612-37.724c11.948 29.338-19.826 58.677-70.974 65.532-51.148 6.854-102.3-11.372-114.25-40.71-3.3255-8.1641-3.3255-16.658 1e-6 -24.822"/>
   <path d="m83.237-55.422c17.553 26.368-5.478 55.907-51.448 65.977-45.971 10.07-97.47-3.142-115.03-29.51-7.8182-11.742-7.8182-24.725-2e-6 -36.467"/>
   <path d="m69.65-71.756c22.731 22.064 9.974 50.52-28.493 63.558s-88.077 5.7209-110.81-16.343c-15.002-14.562-15.002-32.653 1e-6 -47.215"/>
   <path d="m50.483-86.322c27.345 15.992 26.91 41.672-0.97099 57.356-27.881 15.685-72.65 15.435-99.995-0.55695-26.97-15.773-26.97-41.026-3e-6 -56.799"/>
   <path d="m15.682-98.764c31.286 4.9678 49.627 23.543 40.966 41.488-8.6609 17.945-41.044 28.466-72.33 23.498-31.286-4.9678-49.627-23.543-40.966-41.488 5.5101-11.417 21.062-20.337 40.966-23.498"/>
   <path d="m45.399-72.987c0 14.382-20.326 26.041-45.399 26.041s-45.399-11.659-45.399-26.041 20.326-26.041 45.399-26.041 45.399 11.659 45.399 26.041z"/>
   <path d="m30.902-77.906c0 9.7895-13.835 17.725-30.902 17.725s-30.902-7.936-30.902-17.725c0-9.7895 13.835-17.725 30.902-17.725s30.902 7.936 30.902 17.725z"/>
   <path d="m15.643-80.907c0 4.956-7.0038 8.9737-15.643 8.9737-8.6396 0-15.643-4.0177-15.643-8.9737s7.0038-8.9737 15.643-8.9737c8.6396 0 15.643 4.0177 15.643 8.9737z"/>
  </g>
  <path d="m441.7 180c0 84.884-68.813 153.7-153.7 153.7s-153.7-68.813-153.7-153.7c0-84.884 68.813-153.7 153.7-153.7s153.7 68.813 153.7 153.7z" stroke-width="2"/>
 </g>
</svg>
