<?xml version="1.0" encoding="UTF-8"?>
<svg width="153mm" height="153mm" version="1.1" viewBox="0 0 153 153" xmlns="http://www.w3.org/2000/svg" xmlns:cc="http://creativecommons.org/ns#" xmlns:dc="http://purl.org/dc/elements/1.1/" xmlns:rdf="http://www.w3.org/1999/02/22-rdf-syntax-ns#">
 <metadata>
  <rdf:RDF>
   <cc:Work rdf:about="">
    <dc:format>image/svg+xml</dc:format>
    <dc:type rdf:resource="http://purl.org/dc/dcmitype/StillImage"/>
    <dc:title/>
   </cc:Work>
  </rdf:RDF>
 </metadata>
 <g transform="translate(-5.1453 -5.5398)">
  <path d="m21.334 7.0398c-8.1376 0-14.689 6.5514-14.689 14.689v120.62c0 8.1376 6.5514 14.689 14.689 14.689h120.62c8.1376 0 14.689-6.5514 14.689-14.689v-120.62c0-8.1376-6.5514-14.689-14.689-14.689zm2.496 2.5001h31.982l-10.944 83.125a38.687 38.687 0 0 1 9.7498 2.6128l35.514-85.738h42.889l-69.661 90.785a38.687 38.687 0 0 1 7.1375 7.1376l83.648-64.186v40.37l-78.601 32.558a38.687 38.687 0 0 1 2.6122 9.7498l75.989-10.005v24.391c0 2.3174-0.55315 4.4996-1.5296 6.428 0.14343-0.28327 0.28-0.57064 0.40463-0.86455l-74.845-9.8532a38.687 38.687 0 0 1-2.6148 9.7539l21.088 8.7349h-73.304c-7.8664 0-14.199-6.3328-14.199-14.199v-32.879a38.687 38.687 0 0 1 7.137-7.1376l-7.137-9.3012v-34.08l15.879 38.334a38.687 38.687 0 0 1 9.7498-2.6128zm128.72 137.36c-0.29469 0.56728-0.62639 1.1116-0.99219 1.6304 0.36573-0.51879 0.69753-1.0632 0.99219-1.6304zm-1.0728 1.7441c-0.36763 0.51067-0.76854 0.99526-1.1994 1.4516 0.43084-0.4564 0.83178-0.94085 1.1994-1.4516zm-1.3146 1.5725c-0.42995 0.44476-0.88869 0.861-1.3736 1.2464 0.4847-0.38541 0.94375-0.80174 1.3736-1.2464zm-1.5312 1.3699c-0.24355 0.18806-0.49139 0.37095-0.74724 0.54312-0.25384 0.17083-0.51509 0.33077-0.78031 0.48525 0.26501-0.15442 0.52667-0.3145 0.78031-0.48525 0.25581-0.1722 0.50373-0.35503 0.74724-0.54312zm-1.7069 1.1312c-0.53557 0.30154-1.0929 0.56876-1.6692 0.79995 0.57626-0.23127 1.1336-0.4983 1.6692-0.79995zm-1.8691 0.8785c-0.29061 0.11148-0.58411 0.21744-0.88367 0.31006 0.29955-0.0926 0.59307-0.19855 0.88367-0.31006zm-0.88574 0.31058c-0.29746 0.0919-0.6003 0.17077-0.90589 0.24339 0.30551-0.0726 0.60851-0.15147 0.90589-0.24339zm-1.1214 0.293c-0.30779 0.0681-0.6182 0.12989-0.93328 0.17777 0.31513-0.0479 0.62545-0.10965 0.93328-0.17777zm-0.94154 0.1788c-0.30961 0.0469-0.62352 0.0798-0.93948 0.10646 0.31582-0.0267 0.63001-0.0596 0.93948-0.10646zm-1.1948 0.12557c-0.31916 0.0213-0.64008 0.0362-0.9648 0.0362 0.32477 0 0.6456-0.0149 0.9648-0.0362z" fill="#fff" stroke="#fff" stroke-linejoin="round" stroke-width="3"/>
 </g>
</svg>
